<svg xmlns="http://www.w3.org/2000/svg" xmlns:xlink="http://www.w3.org/1999/xlink" width="500" zoomAndPan="magnify" viewBox="0 0 375 374.999991" height="500" preserveAspectRatio="xMidYMid meet" version="1.0"><defs><clipPath id="dda007931a"><path d="M 3.117188 53 L 275 53 L 275 351 L 3.117188 351 Z M 3.117188 53 " clip-rule="nonzero"/></clipPath></defs><path fill="#ffffff" d="M 15.589844 347.5 L 6.550781 339.359375 L 253.820312 56.820312 L 271.296875 72.558594 Z M 15.589844 347.5 " fill-opacity="1" fill-rule="nonzero"/><g clip-path="url(#dda007931a)"><path stroke-linecap="butt" transform="matrix(3.093043, 0, 0, 3.089842, -122.152473, -121.098808)" fill="none" stroke-linejoin="round" d="M 44.532949 151.657838 L 41.610564 149.023197 L 121.554344 57.581942 L 127.204625 62.675496 Z M 44.532949 151.657838 " stroke="#000000" stroke-width="2" stroke-opacity="1" stroke-miterlimit="10"/></g><path stroke-linecap="butt" transform="matrix(2.297495, 2.06871, -2.070853, 2.295117, 89.408127, -353.998131)" fill-opacity="1" fill="#ffffff" fill-rule="nonzero" stroke-linejoin="round" d="M 128.498597 39.502976 L 136.106767 39.50262 L 136.106855 63.172013 L 128.498684 63.172369 Z M 128.498597 39.502976 " stroke="#000000" stroke-width="2" stroke-opacity="1" stroke-miterlimit="10"/><path stroke-linecap="butt" transform="matrix(3.093043, 0, 0, 3.089842, -122.152473, -121.098808)" fill-opacity="1" fill="#ffffff" fill-rule="nonzero" stroke-linejoin="round" d="M 51.952575 160.000446 L 49.241096 157.147095 L 135.994513 72.13947 L 141.235611 77.652747 Z M 51.952575 160.000446 " stroke="#000000" stroke-width="2" stroke-opacity="1" stroke-miterlimit="10"/><path stroke-linecap="butt" transform="matrix(2.131185, 2.239324, -2.241643, 2.12898, 169.060174, -386.596117)" fill-opacity="1" fill="#ffffff" fill-rule="nonzero" stroke-linejoin="round" d="M 143.388106 54.906273 L 150.995949 54.907513 L 150.996521 78.575821 L 143.387809 78.575497 Z M 143.388106 54.906273 " stroke="#000000" stroke-width="2" stroke-opacity="1" stroke-miterlimit="10"/></svg>